<mxfile host="Electron" agent="Mozilla/5.0 (Windows NT 10.0; Win64; x64) AppleWebKit/537.36 (KHTML, like Gecko) draw.io/28.0.6 Chrome/138.0.7204.100 Electron/37.2.3 Safari/537.36" version="28.0.6">
  <diagram name="Page-1" id="yoMIYRCsywAks_YMM_2B">
    <mxGraphModel dx="1636" dy="516" grid="1" gridSize="10" guides="1" tooltips="1" connect="1" arrows="1" fold="1" page="1" pageScale="1" pageWidth="850" pageHeight="1100" math="0" shadow="0">
      <root>
        <mxCell id="0" />
        <mxCell id="1" parent="0" />
        <mxCell id="vv7toFQoOP1ZbUznBxJa-31" value="" style="edgeStyle=orthogonalEdgeStyle;rounded=0;orthogonalLoop=1;jettySize=auto;html=1;" parent="1" source="vv7toFQoOP1ZbUznBxJa-8" target="vv7toFQoOP1ZbUznBxJa-17" edge="1">
          <mxGeometry relative="1" as="geometry" />
        </mxCell>
        <mxCell id="vv7toFQoOP1ZbUznBxJa-8" value="&lt;div&gt;Customer website&lt;/div&gt;" style="image;aspect=fixed;perimeter=ellipsePerimeter;html=1;align=center;shadow=0;dashed=0;spacingTop=3;image=img/lib/active_directory/home_page.svg;" parent="1" vertex="1">
          <mxGeometry x="50" y="180" width="72.22" height="65" as="geometry" />
        </mxCell>
        <mxCell id="vv7toFQoOP1ZbUznBxJa-16" value="User&lt;div&gt;&lt;br&gt;&lt;/div&gt;" style="image;aspect=fixed;perimeter=ellipsePerimeter;html=1;align=center;shadow=0;dashed=0;spacingTop=3;image=img/lib/active_directory/user.svg;" parent="1" vertex="1">
          <mxGeometry x="-18" y="180" width="18.5" height="50" as="geometry" />
        </mxCell>
        <mxCell id="0XvgkQEXZee6cVqThMQY-19" style="edgeStyle=orthogonalEdgeStyle;rounded=0;orthogonalLoop=1;jettySize=auto;html=1;" edge="1" parent="1" source="vv7toFQoOP1ZbUznBxJa-17" target="vv7toFQoOP1ZbUznBxJa-26">
          <mxGeometry relative="1" as="geometry" />
        </mxCell>
        <mxCell id="0XvgkQEXZee6cVqThMQY-20" style="edgeStyle=orthogonalEdgeStyle;rounded=0;orthogonalLoop=1;jettySize=auto;html=1;exitX=1;exitY=0.75;exitDx=0;exitDy=0;entryX=0.5;entryY=0;entryDx=0;entryDy=0;" edge="1" parent="1" source="vv7toFQoOP1ZbUznBxJa-17" target="vv7toFQoOP1ZbUznBxJa-39">
          <mxGeometry relative="1" as="geometry" />
        </mxCell>
        <mxCell id="vv7toFQoOP1ZbUznBxJa-17" value="&lt;div&gt;Load Balancer&lt;/div&gt;&lt;div&gt;&lt;br&gt;&lt;/div&gt;" style="image;aspect=fixed;perimeter=ellipsePerimeter;html=1;align=center;shadow=0;dashed=0;spacingTop=3;image=img/lib/active_directory/windows_server.svg;" parent="1" vertex="1">
          <mxGeometry x="150" y="147.5" width="106.6" height="130" as="geometry" />
        </mxCell>
        <mxCell id="vv7toFQoOP1ZbUznBxJa-26" value="Web Server&lt;div&gt;&lt;br&gt;&lt;/div&gt;" style="image;aspect=fixed;perimeter=ellipsePerimeter;html=1;align=center;shadow=0;dashed=0;spacingTop=3;image=img/lib/active_directory/generic_server.svg;" parent="1" vertex="1">
          <mxGeometry x="350" y="20.75" width="61.32" height="109.5" as="geometry" />
        </mxCell>
        <mxCell id="vv7toFQoOP1ZbUznBxJa-39" value="Web Server&lt;div&gt;&lt;br&gt;&lt;/div&gt;" style="image;aspect=fixed;perimeter=ellipsePerimeter;html=1;align=center;shadow=0;dashed=0;spacingTop=3;image=img/lib/active_directory/generic_server.svg;" parent="1" vertex="1">
          <mxGeometry x="350" y="310" width="61.32" height="109.5" as="geometry" />
        </mxCell>
        <mxCell id="0XvgkQEXZee6cVqThMQY-6" value="" style="edgeStyle=orthogonalEdgeStyle;rounded=0;orthogonalLoop=1;jettySize=auto;html=1;" edge="1" parent="1" source="vv7toFQoOP1ZbUznBxJa-43" target="0XvgkQEXZee6cVqThMQY-4">
          <mxGeometry relative="1" as="geometry" />
        </mxCell>
        <mxCell id="0XvgkQEXZee6cVqThMQY-9" style="edgeStyle=orthogonalEdgeStyle;rounded=0;orthogonalLoop=1;jettySize=auto;html=1;" edge="1" parent="1" source="vv7toFQoOP1ZbUznBxJa-43">
          <mxGeometry relative="1" as="geometry">
            <mxPoint x="650" y="240" as="targetPoint" />
          </mxGeometry>
        </mxCell>
        <mxCell id="vv7toFQoOP1ZbUznBxJa-43" value="Movie DB&lt;div&gt;&lt;br&gt;&lt;/div&gt;" style="image;aspect=fixed;perimeter=ellipsePerimeter;html=1;align=center;shadow=0;dashed=0;spacingTop=3;image=img/lib/active_directory/database.svg;" parent="1" vertex="1">
          <mxGeometry x="710" y="90" width="50" height="37" as="geometry" />
        </mxCell>
        <mxCell id="0XvgkQEXZee6cVqThMQY-1" style="edgeStyle=orthogonalEdgeStyle;rounded=0;orthogonalLoop=1;jettySize=auto;html=1;exitX=1;exitY=0.5;exitDx=0;exitDy=0;entryX=0;entryY=0.41;entryDx=0;entryDy=0;entryPerimeter=0;" edge="1" parent="1" source="vv7toFQoOP1ZbUznBxJa-16" target="vv7toFQoOP1ZbUznBxJa-8">
          <mxGeometry relative="1" as="geometry" />
        </mxCell>
        <mxCell id="0XvgkQEXZee6cVqThMQY-7" value="" style="edgeStyle=orthogonalEdgeStyle;rounded=0;orthogonalLoop=1;jettySize=auto;html=1;" edge="1" parent="1" source="0XvgkQEXZee6cVqThMQY-4" target="0XvgkQEXZee6cVqThMQY-5">
          <mxGeometry relative="1" as="geometry" />
        </mxCell>
        <mxCell id="0XvgkQEXZee6cVqThMQY-4" value="Seat DB&lt;div&gt;&lt;br&gt;&lt;/div&gt;" style="image;aspect=fixed;perimeter=ellipsePerimeter;html=1;align=center;shadow=0;dashed=0;spacingTop=3;image=img/lib/active_directory/database.svg;" vertex="1" parent="1">
          <mxGeometry x="710" y="208" width="50" height="37" as="geometry" />
        </mxCell>
        <mxCell id="0XvgkQEXZee6cVqThMQY-8" style="edgeStyle=orthogonalEdgeStyle;rounded=0;orthogonalLoop=1;jettySize=auto;html=1;" edge="1" parent="1" source="0XvgkQEXZee6cVqThMQY-5">
          <mxGeometry relative="1" as="geometry">
            <mxPoint x="650" y="240" as="targetPoint" />
            <Array as="points">
              <mxPoint x="651" y="349" />
            </Array>
          </mxGeometry>
        </mxCell>
        <mxCell id="0XvgkQEXZee6cVqThMQY-5" value="User DB&lt;div&gt;&lt;br&gt;&lt;/div&gt;" style="image;aspect=fixed;perimeter=ellipsePerimeter;html=1;align=center;shadow=0;dashed=0;spacingTop=3;image=img/lib/active_directory/database.svg;" vertex="1" parent="1">
          <mxGeometry x="710" y="330" width="50" height="37" as="geometry" />
        </mxCell>
        <mxCell id="0XvgkQEXZee6cVqThMQY-21" style="edgeStyle=orthogonalEdgeStyle;rounded=0;orthogonalLoop=1;jettySize=auto;html=1;exitX=0;exitY=0.5;exitDx=0;exitDy=0;entryX=1.001;entryY=0.881;entryDx=0;entryDy=0;entryPerimeter=0;" edge="1" parent="1" source="vv7toFQoOP1ZbUznBxJa-39" target="vv7toFQoOP1ZbUznBxJa-17">
          <mxGeometry relative="1" as="geometry" />
        </mxCell>
        <mxCell id="0XvgkQEXZee6cVqThMQY-22" style="edgeStyle=orthogonalEdgeStyle;rounded=0;orthogonalLoop=1;jettySize=auto;html=1;entryX=1.001;entryY=0.342;entryDx=0;entryDy=0;entryPerimeter=0;" edge="1" parent="1" source="vv7toFQoOP1ZbUznBxJa-26" target="vv7toFQoOP1ZbUznBxJa-17">
          <mxGeometry relative="1" as="geometry" />
        </mxCell>
        <mxCell id="0XvgkQEXZee6cVqThMQY-29" value="" style="endArrow=classic;startArrow=classic;html=1;rounded=0;exitX=1;exitY=0.75;exitDx=0;exitDy=0;" edge="1" parent="1" source="vv7toFQoOP1ZbUznBxJa-26">
          <mxGeometry width="50" height="50" relative="1" as="geometry">
            <mxPoint x="540" y="258" as="sourcePoint" />
            <mxPoint x="650" y="240" as="targetPoint" />
          </mxGeometry>
        </mxCell>
        <mxCell id="0XvgkQEXZee6cVqThMQY-30" value="" style="endArrow=classic;startArrow=classic;html=1;rounded=0;exitX=1;exitY=0.5;exitDx=0;exitDy=0;" edge="1" parent="1" source="vv7toFQoOP1ZbUznBxJa-39">
          <mxGeometry width="50" height="50" relative="1" as="geometry">
            <mxPoint x="460" y="340" as="sourcePoint" />
            <mxPoint x="650" y="240" as="targetPoint" />
          </mxGeometry>
        </mxCell>
      </root>
    </mxGraphModel>
  </diagram>
</mxfile>
